<svg width="30" height="30" fill="none" xmlns="http://www.w3.org/2000/svg"><path d="M30 15c0-8.305-6.695-15-15-15S0 6.695 0 15c0 7.458 5.508 13.644 12.627 14.83V19.323H8.814V15h3.813v-3.305c0-3.729 2.204-5.848 5.678-5.848 1.61 0 3.39.255 3.39.255V9.83H19.83c-1.865 0-2.458 1.186-2.458 2.372V15h4.152l-.678 4.322h-3.474v10.509C24.49 28.643 30 22.457 30 15z" fill="#6DADAF"/><path d="M20.847 19.322L21.525 15h-4.152v-2.797c0-1.186.593-2.372 2.457-2.372h1.865V6.1s-1.695-.254-3.39-.254c-3.39 0-5.678 2.034-5.678 5.848V15H8.814v4.322h3.813v10.509c.763.084 1.525.169 2.373.169.763 0 1.61-.085 2.373-.17V19.323h3.474z" fill="#fff"/></svg>