<svg width="30" height="30" fill="none" xmlns="http://www.w3.org/2000/svg"><path d="M15 30c8.284 0 15-6.716 15-15 0-8.284-6.716-15-15-15C6.716 0 0 6.716 0 15c0 8.284 6.716 15 15 15z" fill="#6DADAF"/><path d="M19.661 9.407c-.593 0-1.017.424-1.017 1.017s.424 1.017 1.017 1.017 1.017-.424 1.017-1.017-.424-1.017-1.017-1.017zm-4.576 1.271c-2.373 0-4.322 1.95-4.322 4.322 0 2.373 1.949 4.322 4.322 4.322s4.322-1.95 4.322-4.322c0-2.373-1.95-4.322-4.322-4.322zm0 7.119c-1.526 0-2.797-1.272-2.797-2.797 0-1.525 1.271-2.797 2.797-2.797 1.525 0 2.796 1.272 2.796 2.797 0 1.525-1.27 2.797-2.796 2.797z" fill="#fff"/><path d="M18.56 23.814h-7.035c-2.881 0-5.254-2.373-5.254-5.255v-7.034c0-2.88 2.373-5.254 5.254-5.254h7.034c2.882 0 5.255 2.373 5.255 5.254v7.034c0 2.882-2.373 5.255-5.255 5.255zM11.524 7.88a3.617 3.617 0 00-3.644 3.644v7.034a3.617 3.617 0 003.644 3.644h7.034a3.617 3.617 0 003.644-3.644v-7.034a3.617 3.617 0 00-3.644-3.644h-7.034z" fill="#fff"/></svg>