<svg width="30" height="30" fill="none" xmlns="http://www.w3.org/2000/svg"><path d="M15 30c8.284 0 15-6.716 15-15 0-8.284-6.716-15-15-15C6.716 0 0 6.716 0 15c0 8.284 6.716 15 15 15z" fill="#6DADAF"/><path d="M23.305 9.915c-.508.255-1.102.34-1.695.509.254-.085.678-.509.848-.763.254-.339.423-.593.508-1.017V8.56h-.085a7.773 7.773 0 01-1.949.763h-.17l-.169-.17c-.254-.254-.593-.423-.932-.593a3.96 3.96 0 00-1.44-.254c-.51 0-.933.17-1.357.424-.423.254-.847.508-1.101.932-.34.424-.509.848-.678 1.356a4.111 4.111 0 000 1.44c0 .085 0 .085-.085.085-2.712-.423-4.915-1.356-6.695-3.39-.085-.084-.085-.084-.17 0-.762 1.187-.423 3.136.594 4.068.17.085.254.255.423.34-.084 0-.677-.085-1.27-.34-.085-.084-.085 0-.085.085v.424c.17 1.186 1.017 2.288 2.118 2.712.17.084.254.084.424.17-.254.084-.509.084-1.271 0-.085 0-.17 0-.085.084.593 1.525 1.78 1.95 2.712 2.203.085 0 .254 0 .339.085-.34.424-1.356.763-1.865.932-.847.34-1.864.424-2.796.34h-.254s0 .084.084.084c.17.085.424.254.594.339a7.196 7.196 0 001.864.763c3.305.932 7.119.254 9.576-2.204 1.95-1.949 2.627-4.66 2.627-7.373 0-.084.085-.17.17-.254.508-.424.932-.847 1.271-1.356.085-.17.085-.339 0-.339.085 0 .085 0 0 0 .085-.084.085-.084 0 0z" fill="#fff"/></svg>