<svg width="31" height="30" fill="none" xmlns="http://www.w3.org/2000/svg"><path d="M15.398 30c8.285 0 15-6.716 15-15 0-8.284-6.715-15-15-15-8.284 0-15 6.716-15 15 0 8.284 6.716 15 15 15z" fill="#6DADAF"/><path d="M24.977 10.806c.14-.465 0-.806-.662-.806h-2.193c-.558 0-.813.295-.953.619 0 0-1.115 2.719-2.695 4.482-.51.513-.743.675-1.02.675-.14 0-.342-.162-.342-.627v-4.343c0-.558-.16-.806-.626-.806H13.04c-.348 0-.558.258-.558.504 0 .528.79.65.871 2.138v3.228c0 .707-.127.836-.407.836-.743 0-2.55-2.729-3.624-5.853-.209-.607-.42-.852-.98-.852H6.15c-.627 0-.752.295-.752.619 0 .582.743 3.462 3.461 7.271 1.812 2.601 4.363 4.011 6.687 4.011 1.393 0 1.565-.313 1.565-.853v-1.966c0-.626.133-.752.574-.752.324 0 .882.164 2.183 1.417 1.486 1.486 1.732 2.153 2.567 2.153h2.192c.626 0 .94-.313.76-.931-.198-.615-.908-1.51-1.85-2.569-.512-.604-1.277-1.254-1.51-1.579-.325-.419-.23-.604 0-.976.001.001 2.672-3.761 2.95-5.04z" fill="#fff"/></svg>